<?xml version="1.0" encoding="utf-8"?>
<!-- Generator: Adobe Illustrator 19.2.0, SVG Export Plug-In . SVG Version: 6.00 Build 0)  -->
<svg version="1.1" id="Isolation_Mode" xmlns="http://www.w3.org/2000/svg" xmlns:xlink="http://www.w3.org/1999/xlink" x="0px"
	 y="0px" viewBox="-255 347 18 18" style="enable-background:new -255 347 18 18;" xml:space="preserve">
<style type="text/css">
	.st0{fill:#000222;}
</style>
<g>
	<path class="st0" d="M-237,347h-18v18h1.8v-7.2h16.2l-5-5.5L-237,347z M-249.1,350.1v0.9h-1.5v4.2h-1.1V351h-1.5v-0.9H-249.1z
		 M-245.1,350.1h1.5v5.1h-1v-3.4c0-0.1,0-0.2,0-0.4c0-0.2,0-0.3,0-0.4l-1,4.2h-1l-1-4.2c0,0.1,0,0.2,0,0.4c0,0.2,0,0.3,0,0.4v3.4h-1
		v-5.1h1.5l0.9,4L-245.1,350.1z"/>
</g>
</svg>
