<?xml version="1.0" encoding="utf-8"?>
<!-- Generator: Adobe Illustrator 19.2.0, SVG Export Plug-In . SVG Version: 6.00 Build 0)  -->
<svg version="1.1" id="Isolation_Mode" xmlns="http://www.w3.org/2000/svg" xmlns:xlink="http://www.w3.org/1999/xlink" x="0px"
	 y="0px" viewBox="-255 347 16 20.6" style="enable-background:new -255 347 16 20.6;" xml:space="preserve">
<style type="text/css">
	.st0{fill:#000222;}
</style>
<g>
	<g>
		<path class="st0" d="M-242.4,355.6v-1.1l-1.5-0.3c-0.1-0.3-0.2-0.5-0.3-0.7l0.9-1.3l-0.8-0.8l-1.3,0.9c-0.2-0.1-0.5-0.2-0.7-0.3
			l-0.3-1.5h-1.1l-0.3,1.5c-0.3,0.1-0.5,0.2-0.7,0.3l-1.3-0.9l-0.8,0.8l0.9,1.3c-0.1,0.2-0.2,0.5-0.3,0.7l-1.5,0.3v1.1l1.5,0.3
			c0.1,0.3,0.2,0.5,0.3,0.7l-0.9,1.3l0.8,0.8l1.3-0.9c0.2,0.1,0.5,0.2,0.7,0.3l0.3,1.5h1.1l0.3-1.5c0.3-0.1,0.5-0.2,0.7-0.3l1.3,0.9
			l0.8-0.8l-0.9-1.3c0.1-0.2,0.2-0.5,0.3-0.7L-242.4,355.6z M-247,356.7c-0.9,0-1.7-0.8-1.7-1.7s0.8-1.7,1.7-1.7s1.7,0.8,1.7,1.7
			S-246.1,356.7-247,356.7z"/>
	</g>
	<path class="st0" d="M-239,355c0-4.4-3.6-8-8-8s-8,3.6-8,8c0,2.5,1.2,4.8,3,6.3l-2.1,3.7h2.9l1.7,2.6l2.6-4.6l2.6,4.6l1.7-2.6h2.9
		l-2.1-3.8C-240.2,359.7-239,357.5-239,355z M-246.3,361.8c-0.2,0-0.4,0-0.7,0c-0.2,0-0.4,0-0.6,0c-1.5-0.1-2.8-0.7-3.8-1.6
		c-1.5-1.3-2.5-3.1-2.5-5.3c0-3.8,3.1-6.9,6.9-6.9s6.9,3.1,6.9,6.9c0,2.1-0.9,3.9-2.4,5.2C-243.6,361.1-244.9,361.7-246.3,361.8z"/>
</g>
</svg>
